<svg width="752" height="745" viewBox="0 0 752 745" fill="none" xmlns="http://www.w3.org/2000/svg">
<path d="M372.199 435.52C371.927 435.465 371.645 435.525 371.419 435.686C371.193 435.848 371.044 436.095 371.008 436.371C369.556 447.508 361.871 455.026 353.444 455.502C353.1 455.521 352.791 455.715 352.625 456.017C352.458 456.318 352.458 456.683 352.625 456.984C369.604 487.684 394.005 499.581 416.965 498.015C439.868 496.453 461.134 481.503 471.903 458.931C472.034 458.654 472.032 458.333 471.897 458.059C471.762 457.784 471.509 457.586 471.21 457.522C466.119 456.43 462.222 454.505 459.592 451.502C456.971 448.511 455.5 444.328 455.5 438.5C455.5 438.212 455.376 437.939 455.16 437.749C454.944 437.559 454.657 437.471 454.372 437.508C423.452 441.498 403.574 441.899 372.199 435.52Z" fill="#FFE2D1" stroke="#F2BEA0" stroke-width="2" stroke-linejoin="round"/>
<path d="M541.5 376.5C548 384.5 559.755 369.401 567 365C579.397 356.587 591.365 339.647 587.327 318.807C586.13 314.665 584.192 310.988 581.687 308.101C579.182 305.215 576.187 303.209 572.968 302.263C569.75 301.316 566.408 301.459 563.24 302.677C560.072 303.896 557.177 306.153 554.812 309.247C556.968 320.837 554.354 332.815 552.5 344.5C550.646 356.185 541.5 369.5 541.5 376.5Z" fill="#FFE2D1" stroke="#F2BEA0" stroke-width="2" stroke-miterlimit="10"/>
<path d="M404.424 460.124C386.729 445.066 374.932 443.16 371 437H458C450.136 445.213 447.678 442.328 430.475 460.124C422.61 468.259 410.814 467.653 404.424 460.124Z" fill="#FFD2B3"/>
<path d="M251.092 294.26V294.316L251.098 294.371C260.563 378.62 328.097 428.71 397.13 446.438C404.921 450.695 411.806 452.875 418.5 452.875C425.206 452.875 431.611 450.687 438.437 446.406C480.705 431.57 511.356 414.256 532.398 390.265C553.473 366.236 564.817 335.613 568.665 294.352L568.669 294.306V294.26V264.163C568.669 180.559 500.955 112.784 417.425 112.784H402.336C318.805 112.784 251.092 180.559 251.092 264.163V294.26Z" fill="#FFE2D1" stroke="#F2BEA0" stroke-width="2" stroke-miterlimit="10"/>
<path d="M423.629 177.299C472.269 177.299 511.7 137.833 511.7 89.1493C511.7 40.4658 472.269 1 423.629 1C374.989 1 335.559 40.4658 335.559 89.1493C335.559 137.833 374.989 177.299 423.629 177.299Z" fill="#EB8339" stroke="#F6AC77" stroke-width="2" stroke-linecap="round" stroke-linejoin="round"/>
<path d="M472.964 451.493C472.964 451.493 503.462 445.709 519.3 443.674C535.137 441.639 647.713 422.253 664.621 392.691C664.621 392.691 731.182 431.678 739.529 444.638C739.529 444.638 725.939 506.439 531.392 523.791V586.234L300.996 588.483L298.749 527.432C268.25 517.364 192.807 502.262 138.231 580.343C118.541 574.881 59.4707 551.317 59.4707 551.317C135.449 407.686 325.395 438.426 351.826 448.815C365.952 472.272 382.004 495.728 416.033 495.3C452.31 495.3 472.214 457.384 472.214 457.384L472.964 451.493Z" fill="#934B53" stroke="#F2BEA0" stroke-width="2" stroke-linecap="round" stroke-linejoin="round"/>
<mask id="path-7-outside-1" maskUnits="userSpaceOnUse" x="213.369" y="91.2937" width="370" height="413" fill="black">
<rect fill="white" x="213.369" y="91.2937" width="370" height="413"/>
<path d="M571.5 322.536C558.873 342.779 555.79 348.456 555.79 348.456C556.19 339.735 556.76 297.175 555.79 288.5C548.5 285 525.5 281.314 528.5 250C508 268.814 474.5 268 434.5 268C363.5 264.5 325.822 259.45 324.538 205.896C307.116 242.48 296.906 282.083 294.467 322.536C290.829 364.522 302.172 422.895 316.94 437.034C325.967 445.641 336.764 452.171 348.575 456.167C360.386 460.163 372.927 461.529 385.32 460.169C372.158 473.557 367.556 479.234 321.113 481.59C332.074 488.694 344.392 493.436 357.283 495.514C316.619 513.508 218.168 501.726 215.493 343.1C213.139 226.889 244.6 172.8 292.22 133.92C325.518 107.606 366.705 93.2937 409.13 93.2937C451.556 93.2937 492.743 107.606 526.04 133.92C589.5 169 586.5 293.714 571.5 322.536Z"/>
</mask>
<path d="M571.5 322.536C558.873 342.779 555.79 348.456 555.79 348.456C556.19 339.735 556.76 297.175 555.79 288.5C548.5 285 525.5 281.314 528.5 250C508 268.814 474.5 268 434.5 268C363.5 264.5 325.822 259.45 324.538 205.896C307.116 242.48 296.906 282.083 294.467 322.536C290.829 364.522 302.172 422.895 316.94 437.034C325.967 445.641 336.764 452.171 348.575 456.167C360.386 460.163 372.927 461.529 385.32 460.169C372.158 473.557 367.556 479.234 321.113 481.59C332.074 488.694 344.392 493.436 357.283 495.514C316.619 513.508 218.168 501.726 215.493 343.1C213.139 226.889 244.6 172.8 292.22 133.92C325.518 107.606 366.705 93.2937 409.13 93.2937C451.556 93.2937 492.743 107.606 526.04 133.92C589.5 169 586.5 293.714 571.5 322.536Z" fill="#EB8339"/>
<path d="M571.5 322.536L573.197 323.594C573.224 323.55 573.25 323.505 573.274 323.459L571.5 322.536ZM555.79 348.456L553.792 348.364C553.749 349.295 554.355 350.132 555.253 350.382C556.151 350.633 557.102 350.229 557.547 349.41L555.79 348.456ZM555.79 288.5L557.777 288.278L557.654 287.177L556.655 286.697L555.79 288.5ZM434.5 268L434.402 269.998L434.451 270H434.5V268ZM324.538 205.896L326.537 205.848L322.732 205.036L324.538 205.896ZM294.467 322.536L296.46 322.709L296.462 322.682L296.464 322.656L294.467 322.536ZM316.94 437.034L315.557 438.478L315.56 438.481L316.94 437.034ZM385.32 460.169L386.746 461.571L390.681 457.568L385.102 458.181L385.32 460.169ZM321.113 481.59L321.012 479.593L314.838 479.906L320.026 483.268L321.113 481.59ZM357.283 495.514L358.093 497.343L364.262 494.613L357.602 493.54L357.283 495.514ZM215.493 343.1L217.493 343.067L217.492 343.06L215.493 343.1ZM292.22 133.92L290.98 132.351L290.968 132.361L290.955 132.371L292.22 133.92ZM409.13 93.2937V95.2937V93.2937ZM526.04 133.92L524.8 135.489L524.929 135.591L525.073 135.67L526.04 133.92ZM528.5 250L530.491 250.191L530.988 245.002L527.148 248.526L528.5 250ZM569.803 321.477C563.484 331.608 559.549 338.1 557.191 342.065C556.012 344.047 555.226 345.399 554.734 346.258C554.487 346.688 554.314 346.995 554.201 347.196C554.145 347.297 554.104 347.371 554.076 347.421C554.062 347.446 554.052 347.465 554.045 347.478C554.041 347.485 554.038 347.49 554.036 347.494C554.035 347.496 554.034 347.498 554.034 347.499C554.033 347.499 554.033 347.5 554.033 347.5C554.033 347.5 554.032 347.501 554.032 347.501C554.032 347.501 554.032 347.501 555.79 348.456C557.547 349.41 557.547 349.41 557.547 349.411C557.547 349.411 557.547 349.411 557.547 349.411C557.547 349.411 557.547 349.411 557.547 349.411C557.547 349.411 557.547 349.41 557.548 349.409C557.549 349.407 557.551 349.404 557.553 349.399C557.558 349.39 557.567 349.375 557.579 349.353C557.602 349.31 557.64 349.243 557.692 349.149C557.798 348.961 557.964 348.666 558.204 348.247C558.684 347.409 559.459 346.077 560.629 344.109C562.969 340.175 566.889 333.707 573.197 323.594L569.803 321.477ZM557.788 348.548C557.99 344.143 558.233 331.288 558.304 318.472C558.375 305.717 558.279 292.761 557.777 288.278L553.802 288.722C554.271 292.914 554.375 305.577 554.304 318.45C554.233 331.263 553.99 344.048 553.792 348.364L557.788 348.548ZM434.598 266.002C398.985 264.247 372.24 262.102 354.203 253.898C345.272 249.835 338.569 244.321 333.993 236.674C329.402 229.001 326.853 219.014 326.537 205.848L322.538 205.944C322.865 219.555 325.507 230.282 330.56 238.727C335.629 247.199 343.024 253.207 352.547 257.539C371.421 266.123 399.015 268.253 434.402 269.998L434.598 266.002ZM322.732 205.036C305.2 241.852 294.925 281.706 292.471 322.416L296.464 322.656C298.887 282.459 309.032 243.108 326.343 206.756L322.732 205.036ZM292.475 322.363C290.636 343.578 292.583 368.858 296.839 390.612C298.967 401.494 301.683 411.543 304.817 419.793C307.928 427.982 311.534 434.626 315.557 438.478L318.323 435.589C314.962 432.371 311.612 426.418 308.556 418.373C305.524 410.39 302.862 400.571 300.764 389.844C296.565 368.379 294.66 343.48 296.46 322.709L292.475 322.363ZM315.56 438.481C324.798 447.289 335.847 453.972 347.934 458.061L349.216 454.272C337.681 450.37 327.136 443.992 318.32 435.586L315.56 438.481ZM347.934 458.061C360.021 462.151 372.855 463.549 385.538 462.157L385.102 458.181C372.998 459.509 360.751 458.175 349.216 454.272L347.934 458.061ZM383.894 458.767C377.275 465.499 373.112 469.947 364.964 473.155C356.695 476.412 344.225 478.415 321.012 479.593L321.215 483.588C344.445 482.409 357.497 480.395 366.43 476.877C375.484 473.311 380.203 468.227 386.746 461.571L383.894 458.767ZM320.026 483.268C331.219 490.523 343.799 495.366 356.965 497.489L357.602 493.54C344.984 491.506 332.928 486.864 322.201 479.912L320.026 483.268ZM356.474 493.685C336.714 502.429 302.676 503.986 273.271 483.889C243.953 463.851 218.823 421.98 217.493 343.067L213.493 343.134C214.837 422.847 240.271 466.18 271.014 487.191C301.668 508.142 337.188 506.593 358.093 497.343L356.474 493.685ZM217.492 343.06C216.319 285.131 223.578 242.849 236.966 210.271C250.34 177.726 269.881 154.741 293.485 135.469L290.955 132.371C266.939 151.979 246.939 175.478 233.266 208.751C219.607 241.99 212.313 284.859 213.493 343.141L217.492 343.06ZM293.46 135.489C326.405 109.454 367.155 95.2937 409.13 95.2937V91.2937C366.255 91.2937 324.631 105.758 290.98 132.351L293.46 135.489ZM409.13 95.2937C451.105 95.2937 491.856 109.454 524.8 135.489L527.281 132.351C493.63 105.758 452.006 91.2937 409.13 91.2937V95.2937ZM525.073 135.67C555.931 152.728 570.923 191.823 576.211 230.843C578.844 250.275 579.043 269.515 577.656 285.668C576.263 301.895 573.288 314.769 569.726 321.613L573.274 323.459C577.212 315.892 580.237 302.368 581.642 286.01C583.053 269.576 582.849 250.041 580.174 230.306C574.847 190.994 559.61 150.192 527.008 132.17L525.073 135.67ZM556.655 286.697C555.65 286.214 554.405 285.742 553.105 285.253C551.776 284.753 550.331 284.214 548.808 283.57C545.766 282.282 542.502 280.606 539.572 278.148C533.838 273.338 529.047 265.257 530.491 250.191L526.509 249.809C524.953 266.056 530.162 275.475 537.001 281.212C540.357 284.027 544.022 285.887 547.249 287.253C548.86 287.935 550.385 288.504 551.697 288.997C553.038 289.502 554.107 289.911 554.924 290.303L556.655 286.697ZM527.148 248.526C517.326 257.54 504.291 261.951 488.545 264.073C472.774 266.199 454.563 266 434.5 266V270C454.437 270 472.976 270.208 489.08 268.037C505.209 265.863 519.174 261.273 529.852 251.474L527.148 248.526Z" fill="#F6AC77" mask="url(#path-7-outside-1)"/>
<path d="M317.146 205.972L297.599 200.952C290.932 199.24 284.142 203.262 282.432 209.933C280.721 216.604 284.738 223.401 291.405 225.113L310.953 230.133C317.62 231.845 324.41 227.824 326.12 221.152C327.83 214.481 323.814 207.684 317.146 205.972Z" fill="#6983C5" stroke="#95C2DB" stroke-width="2" stroke-linecap="round" stroke-linejoin="round"/>
<path d="M310.496 231.426L290.948 226.406C284.281 224.694 277.491 228.716 275.781 235.387C274.071 242.058 278.088 248.855 284.755 250.567L304.303 255.587C310.97 257.299 317.76 253.278 319.47 246.606C321.18 239.935 317.163 233.138 310.496 231.426Z" fill="#6983C5" stroke="#95C2DB" stroke-width="2" stroke-linecap="round" stroke-linejoin="round"/>
<path d="M521 442C521 442 538.455 443.745 542.629 486.053C545.946 520.006 533.007 524.358 539 526.5C544.993 528.642 640.84 524.493 655.5 502C670.161 479.507 654.853 407.394 622 410.5C583.797 414.142 508.694 428.826 521 442Z" fill="white" stroke="#F6AC77" stroke-width="2" stroke-linejoin="round"/>
<path d="M607.052 471.593C607.052 471.593 610.048 468.916 609.727 467.63C609.406 466.345 606.41 456.92 599.026 460.561C597.78 460.836 596.611 461.383 595.601 462.162C594.591 462.942 593.765 463.935 593.183 465.07C592.6 466.206 592.275 467.456 592.231 468.731C592.186 470.007 592.424 471.277 592.926 472.45C593.23 475.833 594.619 479.026 596.886 481.554C599.454 483.911 603.413 487.659 608.336 485.731C612.752 485.523 617.097 484.544 621.177 482.84C623.257 481.111 625.19 479.212 626.956 477.163C628.004 475.09 629.184 473.087 630.487 471.165C630.487 470.629 630.487 471.165 630.487 471.165C630.943 466.724 630.469 462.238 629.096 457.991C627.072 451.293 623.108 445.348 617.705 440.907C612.303 436.467 605.705 433.731 598.747 433.047C591.79 432.363 584.787 433.761 578.624 437.064C572.461 440.367 567.416 445.427 564.129 451.602C560.842 457.777 559.459 464.79 560.157 471.752C560.855 478.714 563.602 485.312 568.049 490.71C572.497 496.109 578.445 500.064 585.141 502.076C591.836 504.088 598.978 504.066 605.661 502.012C613.111 499.955 619.571 495.277 623.853 488.837C618.889 491.915 613.289 493.82 607.48 494.407C598.667 494.28 590.225 490.839 583.83 484.767C581.03 482.239 579.069 478.914 578.208 475.239C577.348 471.564 577.629 467.714 579.015 464.203C581.048 457.669 584.9 453.492 585.007 454.777C585.007 453.706 588.111 451.457 592.819 449.101C595.736 447.627 599.049 447.133 602.268 447.692C605.488 448.252 608.441 449.835 610.69 452.207C617.539 458.955 620.642 459.383 621.391 463.667C622.568 470.522 621.391 467.952 621.391 469.451C621.391 470.951 613.151 480.162 607.052 471.593Z" fill="#FE6A00"/>
<path d="M567.669 585.27H268.144V723.653H567.669V585.27Z" fill="#FFD596" stroke="#E1D2BC" stroke-width="4" stroke-linecap="round" stroke-linejoin="round"/>
<path d="M576.977 742.289H257.976C255.137 742.289 252.416 741.161 250.409 739.152C248.402 737.144 247.274 734.419 247.274 731.579V588.483C247.274 585.643 248.402 582.918 250.409 580.91C252.416 578.901 255.137 577.773 257.976 577.773C260.814 577.773 263.536 578.901 265.542 580.91C267.549 582.918 268.677 585.643 268.677 588.483V720.868H566.276V588.483C566.276 585.643 567.403 582.918 569.41 580.91C571.417 578.901 574.139 577.773 576.977 577.773C579.815 577.773 582.537 578.901 584.544 580.91C586.551 582.918 587.678 585.643 587.678 588.483V731.579C587.678 734.419 586.551 737.144 584.544 739.152C582.537 741.161 579.815 742.289 576.977 742.289Z" fill="#FFD596" stroke="#E1D2BC" stroke-width="4" stroke-linecap="round" stroke-linejoin="round"/>
<path d="M520.895 718.33C519.153 718.373 517.421 718.067 515.8 717.429C514.179 716.792 512.701 715.836 511.455 714.618C510.208 713.401 509.218 711.946 508.542 710.339C507.866 708.732 507.518 707.007 507.518 705.263V626.218C507.518 622.667 508.927 619.262 511.436 616.751C513.944 614.24 517.347 612.83 520.895 612.83C524.442 612.83 527.845 614.24 530.353 616.751C532.862 619.262 534.271 622.667 534.271 626.218V705.263C534.271 707.007 533.923 708.732 533.247 710.339C532.571 711.946 531.581 713.401 530.334 714.618C529.088 715.836 527.61 716.792 525.989 717.429C524.368 718.067 522.636 718.373 520.895 718.33Z" fill="white" stroke="#FE6A00" stroke-width="6"/>
<path d="M549.757 718.33C548.016 718.373 546.283 718.067 544.662 717.429C543.041 716.792 541.564 715.836 540.317 714.618C539.07 713.401 538.08 711.946 537.404 710.339C536.728 708.732 536.38 707.007 536.38 705.263V626.218C536.38 622.667 537.79 619.262 540.298 616.751C542.807 614.24 546.209 612.83 549.757 612.83C553.304 612.83 556.707 614.24 559.215 616.751C561.724 619.262 563.133 622.667 563.133 626.218V705.263C563.134 707.007 562.786 708.732 562.11 710.339C561.434 711.946 560.443 713.401 559.197 714.618C557.95 715.836 556.473 716.792 554.852 717.429C553.23 718.067 551.498 718.373 549.757 718.33Z" fill="white" stroke="#FE6A00" stroke-width="5"/>
<path d="M491.861 718.33C490.12 718.373 488.388 718.067 486.766 717.429C485.145 716.792 483.668 715.836 482.421 714.618C481.175 713.401 480.184 711.946 479.508 710.339C478.832 708.732 478.484 707.007 478.485 705.263V626.218C478.485 622.667 479.894 619.262 482.402 616.751C484.911 614.24 488.313 612.83 491.861 612.83C495.409 612.83 498.811 614.24 501.32 616.751C503.828 619.262 505.238 622.667 505.238 626.218V705.263C505.238 707.007 504.89 708.732 504.214 710.339C503.538 711.946 502.547 713.401 501.301 714.618C500.054 715.836 498.577 716.792 496.956 717.429C495.335 718.067 493.602 718.373 491.861 718.33Z" fill="white" stroke="#FE6A00" stroke-width="6"/>
<path d="M342.63 718.33C340.889 718.373 339.156 718.067 337.535 717.429C335.914 716.792 334.437 715.836 333.19 714.618C331.944 713.401 330.953 711.946 330.277 710.339C329.601 708.732 329.253 707.007 329.253 705.263V626.218C329.253 622.667 330.663 619.262 333.171 616.751C335.68 614.24 339.082 612.83 342.63 612.83C346.178 612.83 349.58 614.24 352.088 616.751C354.597 619.262 356.006 622.667 356.006 626.218V705.263C356.007 707.007 355.659 708.732 354.983 710.339C354.307 711.946 353.316 713.401 352.07 714.618C350.823 715.836 349.346 716.792 347.725 717.429C346.103 718.067 344.371 718.373 342.63 718.33Z" fill="white" stroke="#FE6A00" stroke-width="6"/>
<path d="M313.701 718.33C311.96 718.373 310.228 718.067 308.606 717.429C306.985 716.792 305.508 715.836 304.261 714.618C303.015 713.401 302.024 711.946 301.348 710.339C300.672 708.732 300.324 707.007 300.325 705.263V626.218C300.325 622.667 301.734 619.262 304.243 616.751C306.751 614.24 310.154 612.83 313.701 612.83C317.249 612.83 320.651 614.24 323.16 616.751C325.668 619.262 327.078 622.667 327.078 626.218V705.263C327.064 707.002 326.706 708.722 326.025 710.322C325.344 711.922 324.353 713.371 323.109 714.586C321.866 715.801 320.394 716.757 318.779 717.4C317.165 718.042 315.439 718.359 313.701 718.33Z" fill="white" stroke="#FE6A00" stroke-width="6"/>
<path d="M285.663 718.33C283.922 718.373 282.19 718.067 280.568 717.429C278.947 716.792 277.47 715.836 276.223 714.618C274.977 713.401 273.986 711.946 273.31 710.339C272.634 708.732 272.286 707.007 272.287 705.263V626.218C272.287 622.667 273.696 619.262 276.205 616.751C278.713 614.24 282.115 612.83 285.663 612.83C289.211 612.83 292.613 614.24 295.122 616.751C297.63 619.262 299.04 622.667 299.04 626.218V705.263C299.04 707.007 298.692 708.732 298.016 710.339C297.34 711.946 296.349 713.401 295.103 714.618C293.856 715.836 292.379 716.792 290.758 717.429C289.137 718.067 287.404 718.373 285.663 718.33Z" fill="white" stroke="#FE6A00" stroke-width="6"/>
<path d="M375.915 718.33C373.114 718.425 370.353 717.638 368.023 716.078C365.694 714.518 363.912 712.266 362.931 709.638C361.949 707.01 361.817 704.141 362.553 701.434C363.289 698.727 364.856 696.32 367.033 694.552L431.24 637.036C433.652 634.797 436.832 633.57 440.122 633.608C442.824 633.62 445.459 634.45 447.68 635.989C449.902 637.529 451.605 639.705 452.567 642.233C453.528 644.76 453.702 647.52 453.066 650.148C452.43 652.777 451.014 655.151 449.004 656.958L384.797 714.474C382.427 716.833 379.255 718.21 375.915 718.33Z" fill="white" stroke="#FE6A00" stroke-width="6"/>
<path d="M421.861 718.33C419.579 718.295 417.339 717.707 415.333 716.617C413.799 715.766 412.451 714.617 411.367 713.238C410.282 711.858 409.484 710.276 409.02 708.584C408.47 706.813 408.291 704.948 408.494 703.106C408.696 701.263 409.276 699.482 410.197 697.873L452.145 622.898C453.297 620.813 454.987 619.077 457.039 617.871C459.092 616.665 461.43 616.034 463.81 616.043C466.102 616 468.361 616.593 470.337 617.757C471.879 618.597 473.233 619.743 474.319 621.124C475.404 622.505 476.198 624.092 476.651 625.79C477.18 627.455 477.348 629.215 477.145 630.951C476.942 632.686 476.373 634.359 475.474 635.858L433.632 710.833C432.531 713.031 430.854 714.889 428.781 716.209C426.709 717.529 424.317 718.262 421.861 718.33Z" fill="white" stroke="#FE6A00" stroke-width="6"/>
<path d="M340.376 324.035C370.219 319.116 381.157 315.484 385.963 306.791" stroke="#EB8339" stroke-width="4" stroke-miterlimit="10" stroke-linecap="round"/>
<path d="M492.587 323.244C463.039 319.007 452.658 315.296 447 306" stroke="#EB8339" stroke-width="4" stroke-miterlimit="10" stroke-linecap="round"/>
<path d="M478.014 367.5C478.014 367.5 487.79 362.244 496.014 355.5C490.231 346.054 485.897 341.844 476.514 336C465.127 331.745 458.857 332.205 448.014 341C447.638 355.743 455.014 366 461.014 368.5C467.014 371 477.435 368.337 478.014 367.5Z" fill="white"/>
<path d="M458 361.428C458 365.61 462.029 369 467 369C471.971 369 476 365.61 476 361.428V350.572C476 346.39 471.971 343 467 343C462.029 343 458 346.39 458 350.572V361.428Z" fill="#489AC9" fill-opacity="0.9"/>
<path d="M460 353.379C460 354.827 461.343 356 463 356C464.657 356 466 354.827 466 353.379V349.621C466 348.173 464.657 347 463 347C461.343 347 460 348.173 460 349.621V353.379Z" fill="white"/>
<path d="M460 359.126C460 359.609 460.448 360 461 360C461.552 360 462 359.609 462 359.126V357.874C462 357.391 461.552 357 461 357C460.448 357 460 357.391 460 357.874V359.126Z" fill="white"/>
<path d="M447.921 340.958C472.962 318.252 495.755 354.668 495.755 354.668L503.5 349" stroke="#EB8339" stroke-width="3" stroke-miterlimit="10" stroke-linecap="round"/>
<path d="M359 367.5C359 367.5 349.224 362.244 341 355.5C346.783 346.054 351.117 341.844 360.5 336C371.887 331.745 378.157 332.205 389 341C389.376 355.743 382 366 376 368.5C370 371 359.579 368.337 359 367.5Z" fill="white"/>
<path d="M378 350.572C378 346.39 373.971 343 369 343C364.029 343 360 346.39 360 350.572V361.428C360 365.61 364.029 369 369 369C373.971 369 378 365.61 378 361.428V350.572Z" fill="#489AC9" fill-opacity="0.9"/>
<path d="M362 353.379C362 354.827 363.343 356 365 356C366.657 356 368 354.827 368 353.379V349.621C368 348.173 366.657 347 365 347C363.343 347 362 348.173 362 349.621V353.379Z" fill="white"/>
<path d="M362 359.126C362 359.609 362.448 360 363 360C363.552 360 364 359.609 364 359.126V357.874C364 357.391 363.552 357 363 357C362.448 357 362 357.391 362 357.874V359.126Z" fill="white"/>
<path d="M388.5 340.958C363.459 318.252 340.666 354.668 340.666 354.668L332.921 349" stroke="#EB8339" stroke-width="3" stroke-miterlimit="10" stroke-linecap="round"/>
<path d="M422.46 412.495L419.048 412.806C420.153 412.622 421.295 412.51 422.46 412.495Z" stroke="#F2BEA0" stroke-width="4" stroke-linecap="round" stroke-linejoin="round"/>
<path d="M412 384.754C412 384.754 419.5 391.5 428 384.754" stroke="#F2BEA0" stroke-width="2" stroke-linecap="round" stroke-linejoin="round"/>
<mask id="path-37-inside-2" fill="white">
<path d="M413 427C413 427 421.615 422.5 427 427L413 427Z"/>
</mask>
<path d="M411.148 423.454C409.19 424.477 408.432 426.894 409.455 428.852C410.477 430.81 412.894 431.568 414.852 430.545L411.148 423.454ZM424.435 430.069C426.13 431.486 428.653 431.26 430.069 429.565C431.486 427.87 431.26 425.347 429.565 423.931L424.435 430.069ZM413 427C414.852 430.545 414.851 430.546 414.85 430.547C414.849 430.547 414.848 430.547 414.848 430.548C414.846 430.548 414.845 430.549 414.844 430.55C414.842 430.551 414.84 430.551 414.839 430.552C414.837 430.553 414.837 430.553 414.839 430.552C414.842 430.551 414.853 430.545 414.871 430.536C414.908 430.518 414.974 430.486 415.065 430.443C415.249 430.358 415.534 430.232 415.897 430.088C416.635 429.798 417.644 429.458 418.761 429.236C421.153 428.76 423.132 428.981 424.435 430.069L429.565 423.931C425.483 420.519 420.462 420.74 417.2 421.389C415.49 421.73 414.01 422.233 412.963 422.646C412.435 422.854 412.005 423.044 411.696 423.187C411.542 423.259 411.417 423.32 411.325 423.365C411.279 423.388 411.241 423.407 411.211 423.422C411.196 423.43 411.184 423.436 411.173 423.442C411.168 423.444 411.163 423.447 411.159 423.449C411.157 423.45 411.155 423.451 411.153 423.452C411.152 423.452 411.151 423.453 411.151 423.453C411.149 423.454 411.148 423.454 413 427Z" fill="#F2BEA0" mask="url(#path-37-inside-2)"/>
<path d="M173.275 219.237L165.967 239.225C163.258 245.814 161.331 252.698 160.225 259.735C160.077 261.919 159.455 264.044 158.404 265.965C157.353 267.885 155.896 269.555 154.136 270.858C152.537 271.989 150.728 272.786 148.815 273.204C146.902 273.622 144.925 273.652 143 273.292C141.098 273.037 139.269 272.397 137.623 271.41C135.978 270.424 134.551 269.113 133.431 267.556C131.764 263.869 130.902 259.87 130.902 255.824C130.902 251.778 131.764 247.779 133.431 244.092L143.87 215.065C145.564 211.447 146.442 207.501 146.442 203.507C146.442 199.512 145.564 195.567 143.87 191.948C141.638 189.068 138.796 186.718 135.547 185.065C132.298 183.412 128.724 182.498 125.079 182.389C117.389 181.266 109.551 182.931 102.983 187.082C98.6737 190.981 95.4895 195.962 93.7612 201.508C92.2512 206.526 89.5674 211.114 85.9316 214.891C84.2901 215.994 82.4392 216.749 80.4937 217.107C78.5483 217.466 76.5498 217.422 74.6223 216.977C72.7372 216.679 70.9325 216.001 69.3174 214.985C67.7024 213.97 66.3107 212.637 65.2268 211.067C61.225 205.332 62.6169 196.467 69.4025 184.648C73.5586 176.429 79.5036 169.243 86.8016 163.617C99.7434 154.692 115.675 151.197 131.169 153.884C138.601 154.455 145.812 156.669 152.282 160.366C158.752 164.064 164.318 169.152 168.577 175.262C172.861 181.666 175.527 189.013 176.345 196.672C177.163 204.331 176.11 212.074 173.275 219.237ZM174.841 310.835C171.595 313.116 167.665 314.22 163.705 313.964C161.644 313.952 159.616 313.44 157.798 312.471C155.979 311.502 154.423 310.105 153.266 308.402C150.51 304.485 149.05 299.805 149.09 295.018C148.9 292.291 149.446 289.562 150.67 287.117C151.894 284.671 153.751 282.598 156.05 281.113C157.776 279.773 159.807 278.88 161.963 278.516C164.119 278.152 166.332 278.328 168.403 279.028C171.853 280.396 174.819 282.755 176.928 285.806C179.36 289.351 180.747 293.506 180.93 297.799C181.182 300.318 180.75 302.859 179.678 305.153C178.606 307.447 176.935 309.41 174.841 310.835Z" fill="#FE6A00" fill-opacity="0.5"/>
<path d="M70.5803 255.661L65.9319 268.507C64.2092 272.68 62.9802 277.038 62.2696 281.492C62.1905 282.861 61.8089 284.195 61.1517 285.402C60.4944 286.608 59.5777 287.657 58.4664 288.473C57.4581 289.24 56.2908 289.775 55.0486 290.041C53.8063 290.306 52.5202 290.295 51.2827 290.009C50.0462 289.884 48.8518 289.495 47.7817 288.868C46.7117 288.241 45.7916 287.392 45.0849 286.379C44.0185 284.055 43.4667 281.531 43.4667 278.978C43.4667 276.426 44.0185 273.902 45.0849 271.578L51.8461 253.008C52.9006 250.706 53.4462 248.207 53.4462 245.678C53.4462 243.149 52.9006 240.65 51.8461 238.348C50.4102 236.511 48.5759 235.017 46.4791 233.978C44.3822 232.939 42.0764 232.38 39.7323 232.344C34.8326 231.555 29.812 232.6 25.6465 235.276C22.9414 237.764 20.9076 240.884 19.7304 244.352C18.793 247.57 17.0485 250.5 14.6595 252.869C13.6354 253.603 12.4626 254.108 11.2224 254.349C9.98207 254.59 8.70377 254.561 7.47575 254.265C5.03602 253.845 2.86067 252.491 1.41885 250.495C-1.1166 246.865 -0.271451 241.28 4.09515 233.74C6.71184 228.363 10.4578 223.602 15.0821 219.778C23.3047 214.162 33.3972 211.911 43.2537 213.494C48.0545 213.934 52.6994 215.412 56.8612 217.825C61.0229 220.237 64.6001 223.525 67.3405 227.457C70.1185 231.558 71.8627 236.26 72.4265 241.168C72.9903 246.076 72.3571 251.046 70.5803 255.661ZM70.5803 314.024C68.417 315.446 65.8464 316.132 63.2556 315.979C61.9556 315.941 60.6818 315.607 59.5335 315.001C58.3852 314.396 57.3934 313.536 56.6353 312.488C54.9127 309.974 53.9813 307.01 53.959 303.971C53.8594 302.222 54.2229 300.477 55.0136 298.909C55.8042 297.342 56.9945 296.006 58.4664 295.035C59.6287 294.091 61.0139 293.455 62.4922 293.186C63.9704 292.917 65.4933 293.025 66.9179 293.499C69.1721 294.317 71.0992 295.836 72.4114 297.828C73.9756 300.045 74.8564 302.664 74.9469 305.368C75.1346 307.074 74.8226 308.798 74.0483 310.333C73.2739 311.868 72.0699 313.149 70.5803 314.024Z" fill="#FE6A00" fill-opacity="0.5"/>
<path d="M148.027 342.347L143.305 355.083C141.593 359.327 140.367 363.754 139.648 368.278C139.573 369.666 139.193 371.019 138.534 372.24C137.875 373.461 136.955 374.519 135.84 375.337C134.82 376.084 133.655 376.607 132.422 376.871C131.188 377.136 129.913 377.136 128.679 376.871C127.482 376.733 126.328 376.332 125.302 375.695C124.275 375.059 123.4 374.203 122.738 373.188C120.605 370.273 120.757 365.363 122.738 357.844C124.718 350.326 127.156 345.416 129.441 339.278C130.546 336.874 131.119 334.256 131.119 331.606C131.119 328.957 130.546 326.339 129.441 323.934C128.037 322.049 126.222 320.515 124.135 319.451C122.047 318.386 119.745 317.82 117.406 317.797C112.566 317.044 107.622 318.139 103.542 320.865C100.781 323.283 98.7265 326.413 97.6005 329.918C96.727 333.188 94.9896 336.157 92.5731 338.511C91.549 339.25 90.3843 339.768 89.1521 340.032C87.9199 340.296 86.6468 340.3 85.4128 340.045C83.0145 339.588 80.8852 338.213 79.4712 336.209C76.8306 332.527 77.7446 326.85 82.2135 319.178C84.8324 313.958 88.5188 309.356 93.0301 305.675C101.189 300.082 111.178 297.883 120.91 299.537C125.641 299.932 130.23 301.357 134.36 303.715C138.49 306.073 142.062 309.307 144.828 313.193C147.735 317.398 149.551 322.268 150.11 327.36C150.669 332.453 149.953 337.605 148.027 342.347ZM148.941 400.961C146.875 402.482 144.329 403.191 141.781 402.956C140.488 402.939 139.219 402.609 138.079 401.995C136.939 401.381 135.962 400.5 135.23 399.427C133.535 396.887 132.634 393.894 132.64 390.834C132.507 389.087 132.847 387.335 133.625 385.768C134.403 384.2 135.59 382.875 137.058 381.935C138.135 381.066 139.419 380.496 140.781 380.281C142.144 380.066 143.539 380.213 144.828 380.707C147.06 381.522 148.979 383.025 150.313 385.003C151.843 387.281 152.737 389.93 152.902 392.675C153.136 394.232 152.948 395.824 152.358 397.283C151.768 398.741 150.798 400.012 149.551 400.961H148.941Z" fill="#FE6A00" fill-opacity="0.5"/>
<path d="M527.5 252.5C536.324 244.982 540.245 237.572 545 217.5" stroke="#F6AC77" stroke-width="2" stroke-linecap="round" stroke-linejoin="round"/>
<path d="M550.819 306.649C551.346 309.851 551.167 313.129 550.294 316.255C549.421 319.382 547.875 322.282 545.763 324.755C543.65 327.228 541.023 329.214 538.062 330.577C535.101 331.939 531.877 332.645 528.615 332.645C525.352 332.645 522.129 331.939 519.168 330.577C516.207 329.214 513.579 327.228 511.467 324.755C509.355 322.282 507.808 319.382 506.935 316.255C506.062 313.129 505.883 309.851 506.411 306.649C511.585 286.584 518.93 267.135 528.319 248.645C537.911 267.111 545.455 286.56 550.819 306.649V306.649Z" fill="#87CCF3" stroke="#BFD5E1" stroke-width="2" stroke-linecap="round" stroke-linejoin="round"/>
<path d="M540.615 321.145C541.2 321.542 545.351 316.645 545.351 311.645C545.351 307.645 543.615 301.645 542.615 301.645C541.615 301.645 542.851 307.645 542.851 311.645C542.851 316.67 539.879 320.645 540.615 321.145Z" fill="white"/>
<path d="M673.601 152.671C673.588 152.659 673.574 152.647 673.561 152.636C657.924 139.981 640.888 129.165 622.787 120.399C585.045 98.2324 548.763 108.651 533.728 112.968C532.489 113.323 531.394 113.638 530.455 113.889C527.244 114.748 522.223 116.904 516.335 119.912C510.427 122.93 503.587 126.836 496.72 131.23C483.024 139.994 469.074 150.792 462.265 160.442C462.252 160.46 462.24 160.479 462.228 160.498C455.951 170.802 453.623 183.035 455.676 194.927C455.678 194.94 455.68 194.952 455.683 194.964C456.322 197.98 454.87 199.848 452.86 202.336L452.819 202.387C450.847 204.827 448.491 207.742 448.491 212.537C448.491 212.55 448.492 212.563 448.492 212.576C448.634 216.208 449.812 218.986 451.72 220.952C453.619 222.908 456.158 223.975 458.88 224.346C464.29 225.082 470.639 223.11 474.958 219.518C474.972 219.506 474.987 219.493 475.001 219.48C479.247 215.511 482.125 210.295 483.219 204.585L483.223 204.563C483.721 201.617 483.882 198.135 484.045 194.637C484.087 193.727 484.129 192.816 484.177 191.913C484.411 187.537 484.785 183.332 485.898 180.013C488.245 176.81 491.491 174.559 495.093 172.487C496.217 171.841 497.387 171.207 498.572 170.564C499.924 169.831 501.296 169.088 502.641 168.304C499.194 175.473 499.07 184.609 500.025 192.573C501.157 202.014 503.849 210.145 504.764 212.097C507.47 218.12 511.591 222.308 515.546 224.803C517.522 226.05 519.474 226.884 521.206 227.307C522.905 227.721 524.513 227.768 525.727 227.285C530.454 225.468 533.183 223.14 534.398 220.409C535.613 217.676 535.206 214.778 534.206 212.07C533.209 209.368 531.563 206.702 530.11 204.363L530.01 204.202C529.312 203.078 528.663 202.035 528.129 201.071C527.578 200.075 527.182 199.221 526.983 198.505C526.795 197.387 526.52 196.141 526.232 194.835C526.104 194.253 525.973 193.66 525.847 193.061C525.424 191.067 525.03 188.944 524.851 186.754C524.61 183.813 524.761 180.777 525.748 177.811C525.831 179.112 526.01 180.475 526.268 181.867C526.891 185.223 527.987 188.818 529.373 192.247C530.759 195.676 532.444 198.962 534.255 201.696C536.046 204.398 538.012 206.637 539.996 207.902C542.949 210.039 546.563 211.063 550.198 210.791C553.843 210.518 557.274 208.96 559.88 206.395C559.907 206.368 559.933 206.339 559.957 206.31C561.09 204.904 561.234 203.493 561.371 202.148C561.406 201.81 561.44 201.477 561.489 201.148C561.803 199.051 561.179 197.496 560.517 195.848C560.487 195.775 560.458 195.702 560.428 195.628C560.424 195.617 560.419 195.605 560.414 195.593C560.403 195.57 560.392 195.547 560.38 195.525C560.076 194.963 559.564 194.49 559.034 194.087C558.488 193.673 557.828 193.263 557.135 192.856C556.767 192.64 556.389 192.423 556.004 192.202C554.902 191.571 553.749 190.911 552.657 190.154C551.188 189.136 549.96 188.027 549.25 186.758C548.702 185.778 548.443 184.668 548.678 183.345C551.08 184.253 554.276 185.18 557.483 185.758C561.13 186.415 564.986 186.659 567.704 185.755C577.985 183.046 586.868 176.585 592.617 167.661C592.927 167.81 593.322 168.003 593.796 168.235C595.067 168.857 596.896 169.766 599.129 170.91C603.596 173.199 609.672 176.427 616.113 180.184C622.556 183.943 629.35 188.223 635.259 192.616C641.185 197.022 646.147 201.488 648.995 205.608C649.932 206.964 650.934 208.357 651.986 209.819C657.577 217.589 664.564 227.301 670.575 243.662C677.72 263.109 683.489 291.986 683.703 338.071L683.703 338.077C684.024 367.888 682.81 381.68 671.734 394.857C671.548 395.079 671.467 395.371 671.513 395.658C671.558 395.945 671.727 396.197 671.974 396.35C682.494 402.863 717.939 425.33 726.886 432.289C727.124 432.474 727.432 432.542 727.725 432.474C728.018 432.407 728.266 432.21 728.398 431.94C733.125 422.295 735.616 414.844 738.942 404.896C739.049 404.578 739.156 404.257 739.264 403.933L739.27 403.915C782.255 266.669 691.882 169.138 673.601 152.671Z" fill="#FFE2D1" stroke="#F2BEA0" stroke-width="2" stroke-linejoin="round"/>
<path d="M545 184.5C545.8 183.027 546.425 182.433 548 182L547.5 184.5C547.585 186.555 548.136 187.65 550 189.5L557 194C559.5 195.5 560.5 196.5 560.5 201.5C560.5 206.004 558.304 207.321 552.5 209.5C554.682 206.47 555.535 204.665 555.5 201C555.672 198.121 555.093 196.87 552.5 195.5L546.5 191.5C544.869 188.881 544.542 187.348 545 184.5Z" fill="#FFD2B2"/>
<path d="M481.5 175.5L506.5 164.5L489 175.5C487.179 176.767 486.37 177.793 485.5 180.5L483.5 199C481.393 209.709 478 216 476.5 217.5C468.5 223.5 465.5 223.5 459.5 223.5C456.955 221.268 458.156 219.58 462 217.5C466.775 217.043 469.578 215.739 472 213C474.422 210.261 475.357 206.678 478 199C478.888 191.934 479.18 187.907 479 180.5C478.95 177.964 479.468 176.845 481.5 175.5Z" fill="#FFD2B2"/>
<path d="M521 182C522.684 177.04 524.112 175.176 527 172.5C525.368 175.285 524.534 177.137 523.5 182C523.908 187.166 524.266 190 525.5 196.5C526.259 200.5 526.972 201.809 529.5 205.5C533.211 211.305 534.118 214.269 534 217.5C533.409 222.607 528.5 225.5 524.5 226.5L527 222.5C528.008 220.196 527.802 219.023 527 217L523.5 210.5C521.165 204.434 520.728 201.481 520.5 196.5L521 182Z" fill="#FFD2B2"/>
<path d="M586.5 164L592.5 166.5C589 172 586.5 173.967 582 177.5C575.081 182.933 570.992 184.424 563.5 185.5C570.203 182.186 574 180 579.5 174.5C583.709 170.291 584.575 168.291 586.5 164Z" fill="#FFD2B2"/>
<path d="M382.702 639.574C386.867 639.772 390.979 638.801 394.588 636.808C394.193 637.732 393.802 638.697 393.418 639.647L393.397 639.698C392.479 641.97 391.596 644.149 390.725 645.686C390.652 645.815 390.609 645.959 390.598 646.107C390.458 648.091 390.824 650.079 391.663 651.882C392.503 653.685 393.787 655.244 395.395 656.413C395.427 656.435 395.459 656.456 395.493 656.475C398.684 658.27 402.41 658.864 406 658.15C409.58 657.437 412.787 655.471 415.048 652.606C418.07 649.232 420.798 643.56 422.12 637.723C422.629 635.474 422.939 633.158 422.964 630.907C423.98 633.854 424.683 636.909 425.053 640.022C425.046 640.777 424.888 641.715 424.623 642.825C424.367 643.891 424.027 645.058 423.661 646.313L423.594 646.546C422.821 649.199 421.956 652.212 421.726 655.082C421.495 657.958 421.887 660.854 423.794 663.152C425.701 665.45 428.953 666.949 433.987 667.417C434.018 667.42 434.048 667.421 434.079 667.421C435.339 667.421 436.846 666.912 438.376 666.038C439.927 665.152 441.581 663.847 443.148 662.145C446.285 658.741 449.109 653.713 450.05 647.184C450.077 647.009 450.112 646.8 450.152 646.562C450.568 644.059 451.539 638.213 450.967 631.672C450.679 628.387 449.999 624.892 448.648 621.537C450.128 623.101 451.587 624.64 453.094 626.125C457.475 630.442 462.133 634.159 468.457 636.102C468.487 636.111 468.517 636.119 468.547 636.125C470.717 636.578 472.958 636.567 475.124 636.094C477.282 635.623 479.318 634.703 481.098 633.394C483.25 631.943 484.111 629.076 484.276 626.357C484.445 623.581 483.918 620.593 482.92 618.536C482.907 618.509 482.893 618.483 482.877 618.457C480.607 614.688 477.455 611.528 473.693 609.25C470.281 606.761 464.258 603.117 458.294 599.51L458.246 599.481C452.216 595.832 446.252 592.223 442.923 589.792C437.103 585.239 430.636 581.583 423.735 578.945C423.723 578.94 423.71 578.935 423.697 578.931C423.678 578.924 423.659 578.919 423.639 578.913C415.49 576.71 407.008 576.009 398.609 576.844C388.625 576.848 378.648 578.053 368.74 579.251C367.971 579.344 367.203 579.436 366.436 579.529C366.413 579.531 366.391 579.535 366.369 579.539L358.525 581.024C349.438 581.34 326.95 584.559 301.228 588.241C299.174 588.535 297.1 588.832 295.01 589.131C266.615 593.189 235.296 597.575 213.773 599.232L213.77 599.232C211.373 599.424 208.026 599.82 204.019 600.293C194.387 601.431 180.943 603.02 167.732 603.313C158.401 603.52 149.286 603.073 141.839 601.378C134.351 599.673 128.789 596.761 126.22 592.238L126.213 592.225C125.373 590.796 125.437 588.882 126.478 586.708C127.515 584.544 129.466 582.265 132.098 580.302C132.392 580.083 132.542 579.72 132.49 579.357C132.438 578.995 132.191 578.69 131.847 578.562L64.3473 553.562C63.8866 553.392 63.3702 553.581 63.1289 554.009L64 554.5C63.1289 554.009 63.1289 554.009 63.1288 554.009L63.1284 554.01L63.1272 554.012L63.1224 554.02L63.1039 554.053L63.0322 554.181C62.9696 554.294 62.8776 554.459 62.7598 554.672C62.5242 555.098 62.1852 555.716 61.7707 556.485C60.9418 558.022 59.8098 560.164 58.5972 562.583C56.1823 567.401 53.4108 573.39 52.1051 577.892C49.497 586.883 49.4778 596.429 52.0495 605.431C52.0572 605.458 52.0662 605.485 52.0762 605.511C59.4974 625.037 76.0252 636.992 97.1722 643.857C118.306 650.719 144.168 652.541 170.513 651.743C211.707 650.495 254.322 642.825 282.21 637.805C289.973 636.407 296.595 635.215 301.728 634.424L353.485 628.904C361.524 636.023 371.961 639.838 382.702 639.574Z" fill="#FFE2D1" stroke="#F2BEA0" stroke-width="2" stroke-linejoin="round"/>
<path d="M396.5 634.5C382 637.5 366 634 354 628C359.5 632.5 362 634.5 370 637C376.238 638.949 390 640.5 396.5 634.5Z" fill="#FFD2B2"/>
<path d="M401.5 630.5L397 634L391.5 646.5C390.84 648 392.127 651.751 394.5 654.5C400.285 658.19 403.13 657.99 408 656.5L403.5 655.5C399.084 653.697 397.42 652.027 397 647L404 632.5C404.412 631.066 404.402 630.289 403.5 629L401.5 630.5Z" fill="#FFD2B2"/>
<path d="M457.5 623.5C451.883 619.961 448.345 618.349 443 614.5C448.5 619.5 451.567 623.059 457.5 629C463.955 633.991 467.185 635.179 472.5 635.5C478 634.5 480.598 633.751 482.5 630C481.219 631.101 479.45 631.414 478 631.5C476 631.618 473.3 631.5 470 630C464.5 627.5 461.924 626.504 457.5 623.5Z" fill="#FFD2B2"/>
<path d="M428.5 630C425.215 625.763 423.362 624.028 420 622.5C421.81 624.863 423 627.32 424 630.5C427 640.039 425.824 643 424.5 647C422.751 652.283 422.363 655.14 423 660C424.5 665.5 434.5 667.5 437 665.5C433.842 664.864 432.48 664.243 431 662.5C428.751 659.419 428.156 657.663 428 654.5C428.473 651.459 428.804 649.809 429.5 647C430.75 643.099 430.5 633.5 428.5 630Z" fill="#FFD2B2"/>
</svg>
