<svg width="48" height="78" viewBox="0 0 48 78" fill="none" xmlns="http://www.w3.org/2000/svg">
<rect y="73" width="48" height="5" fill="white"/>
<rect x="9" y="52" width="30" height="20" fill="white"/>
<rect x="14" y="31" width="20" height="20" fill="white"/>
<path d="M19 0H29V30H19V0Z" fill="white"/>
<path d="M21.9175 14.562H21.0825V16H20.6113V12.4453H21.7881C22.1885 12.4453 22.4961 12.5365 22.7109 12.7188C22.9274 12.901 23.0356 13.1663 23.0356 13.5146C23.0356 13.736 22.9754 13.9289 22.855 14.0933C22.7362 14.2576 22.5701 14.3805 22.3569 14.4619L23.1919 15.9707V16H22.689L21.9175 14.562ZM21.0825 14.1787H21.8027C22.0355 14.1787 22.2202 14.1185 22.3569 13.998C22.4953 13.8776 22.5645 13.7165 22.5645 13.5146C22.5645 13.2949 22.4985 13.1265 22.3667 13.0093C22.2365 12.8921 22.0477 12.8327 21.8003 12.8311H21.0825V14.1787ZM24.1978 16H23.729V12.4453H24.1978V16ZM25.5259 14.6084V16H25.0571V12.4453H26.3682C26.7572 12.4453 27.0615 12.5446 27.2812 12.7432C27.5026 12.9417 27.6133 13.2046 27.6133 13.5317C27.6133 13.8768 27.505 14.1429 27.2886 14.3301C27.0737 14.5156 26.7653 14.6084 26.3633 14.6084H25.5259ZM25.5259 14.2251H26.3682C26.6188 14.2251 26.8109 14.1665 26.9443 14.0493C27.0778 13.9305 27.1445 13.7596 27.1445 13.5366C27.1445 13.325 27.0778 13.1558 26.9443 13.0288C26.8109 12.9019 26.6278 12.8359 26.395 12.8311H25.5259V14.2251Z" fill="#C4C4C4"/>
</svg>
