<svg width="20" height="18" viewBox="0 0 20 18" fill="none" xmlns="http://www.w3.org/2000/svg">
<path d="M19.6819 2.6172C19.2375 2.81425 18.7763 2.9697 18.3029 3.08225C18.8245 2.58663 19.2166 1.96672 19.4379 1.27478C19.501 1.07725 19.2864 0.906434 19.1081 1.0122C18.4496 1.40278 17.7403 1.69579 16.9998 1.88319C16.9569 1.89406 16.9126 1.89957 16.8681 1.89957C16.7332 1.89957 16.6021 1.84949 16.499 1.7586C15.7112 1.06428 14.6979 0.681885 13.646 0.681885C13.1908 0.681885 12.7312 0.752834 12.28 0.892781C10.8819 1.32642 9.80311 2.47969 9.46465 3.90257C9.33767 4.43627 9.3033 4.97046 9.36239 5.49026C9.36917 5.55 9.34094 5.59169 9.32353 5.61124C9.29296 5.64552 9.24961 5.66517 9.2046 5.66517C9.19958 5.66517 9.19441 5.66493 9.18929 5.66444C6.12889 5.38011 3.36915 3.90569 1.41842 1.51284C1.31895 1.39079 1.12819 1.40576 1.0489 1.54175C0.666901 2.19712 0.465027 2.94669 0.465027 3.70942C0.465027 4.87835 0.934654 5.97993 1.75039 6.78299C1.40735 6.70166 1.07533 6.57356 0.766913 6.40226C0.617701 6.31936 0.434111 6.42591 0.432015 6.59658C0.410657 8.33309 1.42735 9.87826 2.95038 10.574C2.91971 10.5748 2.88904 10.5751 2.85832 10.5751C2.6169 10.5751 2.37245 10.5518 2.13186 10.5058C1.96383 10.4737 1.82266 10.6331 1.87484 10.7961C2.36918 12.3394 3.69805 13.477 5.28828 13.7353C3.96848 14.6213 2.43155 15.0886 0.831912 15.0886L0.333223 15.0883C0.179574 15.0883 0.0496227 15.1885 0.0104668 15.3373C-0.028104 15.4839 0.0429423 15.6385 0.173966 15.7147C1.9765 16.7638 4.03256 17.3182 6.12074 17.3182C7.94859 17.3182 9.65838 16.9554 11.2027 16.2401C12.6184 15.5843 13.8694 14.6469 14.921 13.4538C15.9007 12.3424 16.6667 11.0594 17.1978 9.64055C17.7041 8.28803 17.9717 6.84487 17.9717 5.46705V5.40142C17.9717 5.18018 18.0717 4.97202 18.2463 4.83032C18.9087 4.29247 19.4856 3.65934 19.9608 2.94854C20.0862 2.76085 19.8884 2.52563 19.6819 2.6172Z" fill="white"/>
</svg>
