<svg width="1595" height="1595" viewBox="0 0 1595 1595" fill="none" xmlns="http://www.w3.org/2000/svg">
<g filter="url(#filter0_d_1619_16)">
<rect x="4" width="1587" height="1587" rx="793.5" fill="white"/>
</g>
<path d="M1041.84 857.749C1048.77 867.376 1103.84 801.308 1096.54 775.759C1089.48 764.043 1028.11 564.544 871.706 629.395C713.474 670.601 729.874 807.259 746.512 874.147C764.34 981.368 772.672 980.918 827.929 1061.51C880.832 1111.44 961.429 1187.82 1063.35 1148.97C1191.34 1143.12 1271.73 1108.48 1329.63 1088.4C1385.31 1039.08 1417.13 1009.83 1448.43 972.031C1507.31 848.016 1520.74 864.731 1519.47 847.963C1518.71 838.204 1519.84 842.488 1521.01 854.231C1529.87 762.086 1521.22 676.87 1492.57 582.82C1375.42 198.078 968.598 -18.692 583.968 98.4471C199.338 215.586 -17.4841 622.492 99.7485 1007.1C216.981 1391.71 623.777 1608.45 1008.43 1491.26C1173.41 1441.01 1293.95 1350.93 1384.04 1218.69C1382.14 1219.59 1380.23 1220.51 1378.3 1221.33C1323.07 1267.75 1200.29 1308.37 1042.74 1335.06C884.033 1345.64 699.111 1265.74 553.998 1137.49C407.802 995.306 414.943 856.479 455.546 713.077C496.811 578.191 576.588 504.824 577.699 519.423C575.98 496.678 643.113 451.108 740.402 402.549C836.764 342.167 969.021 354.545 1108.37 466.077C1249.78 605.459 1312.52 614.372 1331.8 703.609C1355.03 844.445 1330.69 790.676 1333.07 821.647C1333.76 830.481 1168.44 1033.58 1041.84 857.749Z" fill="#FE6A00"/>
<defs>
<filter id="filter0_d_1619_16" x="0" y="0" width="1595" height="1595" filterUnits="userSpaceOnUse" color-interpolation-filters="sRGB">
<feFlood flood-opacity="0" result="BackgroundImageFix"/>
<feColorMatrix in="SourceAlpha" type="matrix" values="0 0 0 0 0 0 0 0 0 0 0 0 0 0 0 0 0 0 127 0" result="hardAlpha"/>
<feOffset dy="4"/>
<feGaussianBlur stdDeviation="2"/>
<feColorMatrix type="matrix" values="0 0 0 0 0 0 0 0 0 0 0 0 0 0 0 0 0 0 0.25 0"/>
<feBlend mode="normal" in2="BackgroundImageFix" result="effect1_dropShadow_1619_16"/>
<feBlend mode="normal" in="SourceGraphic" in2="effect1_dropShadow_1619_16" result="shape"/>
</filter>
</defs>
</svg>
