<svg xmlns="http://www.w3.org/2000/svg" viewBox="0 0 773.16 184.5"><g id="Layer_2" data-name="Layer 2"><g id="Layer_1-2" data-name="Layer 1"><path class="cls-1" d="M296.42,122.57l-4.94-8.49c-.6-.93-1.84-2.69-1.84-2.69a9.3,9.3,0,0,1-2.09,2.06q-8.12,4.56-20,4.56-13.05,0-20.59-7.47c-5-5-7.53-7.53-7.53-17.49s2.4-16.35,7.22-21.37,11.57-7.54,20.26-7.54A38.4,38.4,0,0,1,286,68.7a5,5,0,0,0,2.15.76c.59,0,1.18-.46,1.78-1.39l4.43-13.65a3.88,3.88,0,0,0,.76-2.15,2.48,2.48,0,0,0-1.27-2A40.21,40.21,0,0,0,281.15,45a70.63,70.63,0,0,0-16.78-1.84q-22,0-33.88,11.53T218.65,88.12q0,21.78,12.09,33.37t34.14,11.59q20.64,0,30.52-7.09c1-.76,1.52-1.4,1.52-1.9A3.28,3.28,0,0,0,296.42,122.57Z"/><path class="cls-1" d="M376.4,54.93q-11.34-11.77-32.74-11.78T310.79,54.93q-11.34,11.77-11.33,33.19t11.33,33.18q11.34,11.78,32.87,11.78T376.4,121.3q11.34-11.77,11.34-33.18T376.4,54.93Zm-15.32,55.54q-5.9,7.55-17.42,7.54t-17.54-7.54c-3.93-5-5.89-10.5-5.89-20.38s2-13.39,5.89-18.41,9.77-7.54,17.54-7.54,13.49,2.51,17.42,7.54S367,80.21,367,90.09,365,105.45,361.08,110.47Z"/><path class="cls-1" d="M473.87,127l-32.8-78.15a7.64,7.64,0,0,0-1.91-3,4.78,4.78,0,0,0-3-.82h-9.25a5.07,5.07,0,0,0-3.1.82,7.14,7.14,0,0,0-2,3L389,127a6.34,6.34,0,0,0-.38,2c0,1.44.76,2.15,2.28,2.15h15.32a4.64,4.64,0,0,0,2.6-.57,4.73,4.73,0,0,0,1.46-2.09l5.7-15h30.77l5.83,15a3.58,3.58,0,0,0,4.05,2.66H472c1.52,0,2.28-.71,2.28-2.15A6.63,6.63,0,0,0,473.87,127ZM420.8,99l10.64-27.36L442,99Z"/><path class="cls-1" d="M560.38,50.62v75.11a5.82,5.82,0,0,1-1.27,4.12c-.84.89-2.32,1.33-4.43,1.33h-8a6.74,6.74,0,0,1-3.1-.57,7.84,7.84,0,0,1-2.35-2.22L505.66,82.54v43.19a5.78,5.78,0,0,1-1.27,4.12c-.84.89-2.32,1.33-4.43,1.33h-9.5c-2,0-3.48-.44-4.37-1.33a5.61,5.61,0,0,1-1.33-4.12V66a5.8,5.8,0,0,0-5.83-5.09h-8.27s.15-.75,4.68-12.06l0-.1a5.35,5.35,0,0,0,.2-.64,5,5,0,0,1,2.88-2.84,10.7,10.7,0,0,1,1.49-.1l1.06,0c2.65-.07,8.83-.12,9.59-.12h7.85a7.12,7.12,0,0,1,3.23.57A7.83,7.83,0,0,1,504,47.84l35.47,50V50.62a5.86,5.86,0,0,1,1.33-4.18c.89-.92,2.34-1.39,4.37-1.39h9.5c2.11,0,3.59.45,4.43,1.33A6,6,0,0,1,560.38,50.62Z"/><path class="cls-1" d="M595,46.38c-.84-.88-2.32-1.33-4.43-1.33H581c-2,0-3.48.47-4.37,1.39a5.86,5.86,0,0,0-1.33,4.18v75.11a5.61,5.61,0,0,0,1.33,4.12c.89.89,2.34,1.33,4.37,1.33h9.5c2.11,0,3.59-.44,4.43-1.33a5.78,5.78,0,0,0,1.27-4.12V50.62A6,6,0,0,0,595,46.38Z"/><path class="cls-1" d="M694.35,46.38c-.89-.88-2.39-1.33-4.5-1.33h-9.37a8.87,8.87,0,0,0-3.55.57,4.21,4.21,0,0,0-2,2.22l-22,51.68L631,47.84a4.2,4.2,0,0,0-2-2.22,8.9,8.9,0,0,0-3.55-.57H616c-2.12,0-3.61.45-4.5,1.33a5.61,5.61,0,0,0-1.33,4.12v75.23a5.61,5.61,0,0,0,1.33,4.12c.89.89,2.34,1.33,4.37,1.33h7.73c2.11,0,3.61-.44,4.49-1.33a5.61,5.61,0,0,0,1.33-4.12V77.86l16.85,37.87a9.57,9.57,0,0,0,2.47,3.73,6.45,6.45,0,0,0,4.11,1.08c1.95,0,3.32-.36,4.12-1.08a11.92,11.92,0,0,0,2.47-3.73l17-37.87v47.87a5.65,5.65,0,0,0,1.33,4.12c.89.89,2.39,1.33,4.5,1.33H690c2,0,3.48-.44,4.37-1.33a5.65,5.65,0,0,0,1.32-4.12V50.5A5.65,5.65,0,0,0,694.35,46.38Z"/><path class="cls-1" d="M767.84,60.5c2,0,3.42-.42,4.18-1.26a6.2,6.2,0,0,0,1.14-4.18V50.37q0-2.91-1.14-4.11c-.76-.81-2.15-1.21-4.18-1.21H715.28c-2,0-3.48.47-4.37,1.39a5.86,5.86,0,0,0-1.33,4.18v75.11a5.61,5.61,0,0,0,1.33,4.12c.89.89,2.34,1.33,4.37,1.33h52.44c2,0,3.42-.4,4.18-1.2s1.14-2.18,1.14-4.12V121.3a6.2,6.2,0,0,0-1.14-4.18c-.76-.84-2.16-1.27-4.18-1.27H730.48V95.72h26.09a6.92,6.92,0,0,0,3.5-.72,5.09,5.09,0,0,0,3.29-2.86c3.79-9.52,4.65-11.65,4.65-11.65H757.53c-.09,0-.2.05-.29.06s-.43,0-.67,0H730.48v-20Z"/><path class="cls-1" d="M123.37,100.22c.88,1.22,7.85-7.15,6.93-10.4-.9-1.48-8.67-26.76-28.48-18.54-20,5.22-18,22.53-15.86,31,2.26,13.58,3.31,13.52,10.31,23.73,6.7,6.33,16.91,16,29.83,11.08,16.22-.74,26.4-5.13,33.73-7.67,7.06-6.25,11.09-10,15-14.75,7.46-15.71,9.16-13.6,9-15.72-.09-1.24.05-.7.2.79a85.63,85.63,0,0,0-3.61-34.38,92.23,92.23,0,1,0-61.33,115.1c20.89-6.37,36.16-17.78,47.58-34.53-.24.12-.48.23-.73.33-7,5.88-22.55,11-42.5,14.42-20.12,1.34-43.53-8.78-61.91-25C43.06,117.65,44,100.07,49.1,81.9c5.23-17.08,15.34-26.39,15.48-24.54-.22-2.88,8.29-8.65,20.61-14.8,12.21-7.66,29-6.09,46.61,8,17.91,17.66,25.85,18.79,28.3,30.09,2.94,17.84-.14,11,.16,14.95C160.35,96.76,139.4,122.49,123.37,100.22Z"/></g></g></svg>